<svg width="1080" height="1350" viewBox="0 0 1080 1350" role="img" xmlns="http://www.w3.org/2000/svg">
<title>Astro Project — אתם מביאים את הרעיון, אנחנו משגרים אותו</title>
<defs>
<style>
@import url('https://fonts.googleapis.com/css2?family=Orbitron:wght@600;800;900&amp;family=Heebo:wght@400;500;700;800;900&amp;display=swap');
.en{font-family:'Orbitron','Heebo',sans-serif;}
.he{font-family:'Heebo','Rubik',sans-serif;}
</style>
<linearGradient id="bg" x1="0" y1="0" x2="0.3" y2="1"><stop offset="0" stop-color="#0a0a1c"/><stop offset="0.5" stop-color="#0c0b22"/><stop offset="1" stop-color="#14122f"/></linearGradient>
<linearGradient id="head" x1="1" y1="0" x2="0" y2="0"><stop offset="0" stop-color="#8BE9FF"/><stop offset="0.5" stop-color="#B49BFF"/><stop offset="1" stop-color="#FF93D8"/></linearGradient>
<linearGradient id="cta" x1="1" y1="0" x2="0" y2="1"><stop offset="0" stop-color="#8BE9FF"/><stop offset="0.55" stop-color="#B49BFF"/><stop offset="1" stop-color="#FF93D8"/></linearGradient>
<linearGradient id="sel" x1="0" y1="0" x2="1" y2="1"><stop offset="0" stop-color="#8BE9FF"/><stop offset="1" stop-color="#B49BFF"/></linearGradient>
<linearGradient id="phone" x1="0" y1="0" x2="0.6" y2="1"><stop offset="0" stop-color="#1d1d3e"/><stop offset="1" stop-color="#101026"/></linearGradient>
<linearGradient id="screen" x1="0" y1="0" x2="0" y2="1"><stop offset="0" stop-color="#100f28"/><stop offset="1" stop-color="#0b0a1e"/></linearGradient>
<radialGradient id="planet" cx="0.4" cy="0.35" r="0.75"><stop offset="0" stop-color="#2c2658"/><stop offset="0.6" stop-color="#191537"/><stop offset="1" stop-color="#0e0c24"/></radialGradient>
<radialGradient id="glowC" cx="0.5" cy="0.5" r="0.5"><stop offset="0" stop-color="#54c8ff" stop-opacity="0.5"/><stop offset="1" stop-color="#54c8ff" stop-opacity="0"/></radialGradient>
<radialGradient id="glowV" cx="0.5" cy="0.5" r="0.5"><stop offset="0" stop-color="#9b6eff" stop-opacity="0.45"/><stop offset="1" stop-color="#9b6eff" stop-opacity="0"/></radialGradient>
<radialGradient id="glowP" cx="0.5" cy="0.5" r="0.5"><stop offset="0" stop-color="#ff78c8" stop-opacity="0.32"/><stop offset="1" stop-color="#ff78c8" stop-opacity="0"/></radialGradient>
<linearGradient id="shoot" x1="0" y1="0" x2="1" y2="1"><stop offset="0" stop-color="#8BE9FF" stop-opacity="0"/><stop offset="1" stop-color="#8BE9FF" stop-opacity="0.9"/></linearGradient>
</defs>
<rect x="0" y="0" width="1080" height="1350" fill="url(#bg)"/>
<ellipse cx="430" cy="650" rx="430" ry="420" fill="url(#glowC)"/>
<ellipse cx="720" cy="860" rx="380" ry="370" fill="url(#glowV)"/>
<ellipse cx="560" cy="380" rx="360" ry="290" fill="url(#glowP)"/>
<circle cx="952" cy="150" r="118" fill="url(#planet)"/>
<ellipse cx="952" cy="150" rx="170" ry="48" fill="none" stroke="#8BE9FF" stroke-width="2" stroke-opacity="0.4" transform="rotate(-22 952 150)"/>
<ellipse cx="952" cy="150" rx="150" ry="40" fill="none" stroke="#B49BFF" stroke-width="1.5" stroke-opacity="0.3" transform="rotate(-22 952 150)"/>
<g fill="#ffffff">
<circle cx="90" cy="120" r="1.6" opacity="0.8"/><circle cx="180" cy="300" r="1.1" opacity="0.6"/><circle cx="60" cy="470" r="1.8" opacity="0.85"/><circle cx="140" cy="640" r="1.2" opacity="0.6"/><circle cx="70" cy="820" r="1.5" opacity="0.7"/><circle cx="200" cy="980" r="1.1" opacity="0.55"/><circle cx="95" cy="1130" r="1.7" opacity="0.8"/><circle cx="250" cy="1250" r="1.2" opacity="0.6"/><circle cx="300" cy="170" r="1.3" opacity="0.7"/><circle cx="420" cy="90" r="1.1" opacity="0.55"/><circle cx="620" cy="120" r="1.5" opacity="0.75"/><circle cx="760" cy="320" r="1.2" opacity="0.6"/><circle cx="1000" cy="430" r="1.6" opacity="0.8"/><circle cx="1020" cy="640" r="1.2" opacity="0.6"/><circle cx="980" cy="820" r="1.7" opacity="0.8"/><circle cx="900" cy="1000" r="1.2" opacity="0.6"/><circle cx="1010" cy="1160" r="1.5" opacity="0.75"/><circle cx="840" cy="1240" r="1.2" opacity="0.6"/><circle cx="500" cy="1290" r="1.3" opacity="0.65"/><circle cx="680" cy="1260" r="1.1" opacity="0.55"/><circle cx="360" cy="1190" r="1.4" opacity="0.7"/>
</g>
<g stroke="#8BE9FF" stroke-width="1.6" stroke-linecap="round" opacity="0.85"><path d="M148 215 l0 18 M139 224 l18 0"/><path d="M1012 285 l0 16 M1004 293 l16 0"/></g>
<g stroke="#FF93D8" stroke-width="1.6" stroke-linecap="round" opacity="0.8"><path d="M820 200 l0 16 M812 208 l16 0"/></g>
<line x1="700" y1="80" x2="900" y2="250" stroke="url(#shoot)" stroke-width="3" stroke-linecap="round"/>
<circle cx="900" cy="250" r="3.5" fill="#ffffff"/>
<text x="540" y="112" text-anchor="middle" class="en" font-size="26" font-weight="700" letter-spacing="11" fill="#8BE9FF">ASTRO PROJECT</text>
<text x="540" y="146" text-anchor="middle" class="he" font-size="17" font-weight="500" fill="#ffffff" fill-opacity="0.55" direction="rtl">תוכנה מעולם אחר</text>
<text x="540" y="240" text-anchor="middle" class="he" font-size="60" font-weight="800" fill="#ffffff" direction="rtl">אתם מביאים את הרעיון.</text>
<text x="540" y="318" text-anchor="middle" class="he" font-size="64" font-weight="900" fill="url(#head)" direction="rtl">אנחנו משגרים אותו.</text>
<text x="540" y="368" text-anchor="middle" class="he" font-size="26" font-weight="500" fill="#ffffff" fill-opacity="0.72" direction="rtl">מערכות, אתרים ואפליקציות — מהרעיון ועד ההשקה.</text>
<g>
<rect x="140" y="440" width="560" height="350" rx="16" fill="url(#phone)" stroke="#ffffff" stroke-opacity="0.16" stroke-width="2"/>
<rect x="148" y="448" width="544" height="334" rx="11" fill="url(#screen)"/>
<circle cx="167" cy="466" r="5" fill="#FF93D8" fill-opacity="0.7"/><circle cx="185" cy="466" r="5" fill="#B49BFF" fill-opacity="0.7"/><circle cx="203" cy="466" r="5" fill="#8BE9FF" fill-opacity="0.7"/>
<text x="676" y="471" text-anchor="end" class="he" font-size="13" fill="#ffffff" fill-opacity="0.5" direction="rtl">לוח הבקרה של העסק</text>
<rect x="584" y="496" width="100" height="28" rx="8" fill="url(#sel)"/><text x="634" y="515" text-anchor="middle" class="he" font-size="12" font-weight="700" fill="#15103a">דשבורד</text>
<rect x="584" y="532" width="100" height="28" rx="8" fill="#ffffff" fill-opacity="0.05"/><text x="634" y="551" text-anchor="middle" class="he" font-size="12" fill="#ffffff" fill-opacity="0.55">הזמנות</text>
<rect x="584" y="568" width="100" height="28" rx="8" fill="#ffffff" fill-opacity="0.05"/><text x="634" y="587" text-anchor="middle" class="he" font-size="12" fill="#ffffff" fill-opacity="0.55">לקוחות</text>
<rect x="584" y="604" width="100" height="28" rx="8" fill="#ffffff" fill-opacity="0.05"/><text x="634" y="623" text-anchor="middle" class="he" font-size="12" fill="#ffffff" fill-opacity="0.55">דוחות</text>
<rect x="156" y="496" width="128" height="74" rx="10" fill="#ffffff" fill-opacity="0.05"/><text x="272" y="521" text-anchor="end" class="he" font-size="11" fill="#ffffff" fill-opacity="0.5" direction="rtl">הזמנות היום</text><text x="272" y="551" text-anchor="end" class="he" font-size="22" font-weight="800" fill="#8BE9FF">18</text>
<rect x="298" y="496" width="128" height="74" rx="10" fill="#ffffff" fill-opacity="0.05"/><text x="414" y="521" text-anchor="end" class="he" font-size="11" fill="#ffffff" fill-opacity="0.5" direction="rtl">לקוחות פעילים</text><text x="414" y="551" text-anchor="end" class="he" font-size="22" font-weight="800" fill="#ffffff">312</text>
<rect x="440" y="496" width="128" height="74" rx="10" fill="#ffffff" fill-opacity="0.05"/><text x="556" y="521" text-anchor="end" class="he" font-size="11" fill="#ffffff" fill-opacity="0.5" direction="rtl">משימות פתוחות</text><text x="556" y="551" text-anchor="end" class="he" font-size="22" font-weight="800" fill="#B49BFF">9</text>
<rect x="156" y="588" width="270" height="182" rx="12" fill="#ffffff" fill-opacity="0.04"/>
<rect x="176" y="692" width="22" height="58" rx="4" fill="#8BE9FF" fill-opacity="0.75"/>
<rect x="210" y="662" width="22" height="88" rx="4" fill="#8BE9FF" fill-opacity="0.75"/>
<rect x="244" y="678" width="22" height="72" rx="4" fill="#8BE9FF" fill-opacity="0.75"/>
<rect x="278" y="632" width="22" height="118" rx="4" fill="#8BE9FF" fill-opacity="0.75"/>
<rect x="312" y="658" width="22" height="92" rx="4" fill="#8BE9FF" fill-opacity="0.75"/>
<rect x="346" y="612" width="22" height="138" rx="4" fill="url(#sel)"/>
<rect x="380" y="642" width="22" height="108" rx="4" fill="#8BE9FF" fill-opacity="0.75"/>
<rect x="440" y="588" width="128" height="182" rx="12" fill="#ffffff" fill-opacity="0.04"/>
<circle cx="504" cy="660" r="38" fill="none" stroke="#ffffff" stroke-opacity="0.08" stroke-width="10"/>
<circle cx="504" cy="660" r="38" fill="none" stroke="url(#sel)" stroke-width="10" stroke-linecap="round" stroke-dasharray="162 77" transform="rotate(-90 504 660)"/>
<text x="504" y="666" text-anchor="middle" class="en" font-size="16" font-weight="800" fill="#ffffff">68%</text>
<text x="504" y="730" text-anchor="middle" class="he" font-size="12" fill="#ffffff" fill-opacity="0.5" direction="rtl">יעד החודש</text>
</g>
<g>
<rect x="690" y="520" width="250" height="470" rx="34" fill="url(#phone)" stroke="#ffffff" stroke-opacity="0.16" stroke-width="2"/>
<rect x="700" y="530" width="230" height="450" rx="26" fill="url(#screen)"/>
<rect x="770" y="540" width="90" height="16" rx="8" fill="#05050f"/>
<text x="914" y="596" text-anchor="end" class="he" font-size="17" font-weight="700" fill="#ffffff" direction="rtl">שלום, דנה</text>
<text x="914" y="616" text-anchor="end" class="he" font-size="12" fill="#8BE9FF" fill-opacity="0.85" direction="rtl">3 עדכונים חדשים</text>
<rect x="712" y="636" width="206" height="50" rx="12" fill="#ffffff" fill-opacity="0.05"/>
<circle cx="902" cy="661" r="4" fill="#8BE9FF"/>
<text x="888" y="656" text-anchor="end" class="he" font-size="12.5" font-weight="500" fill="#ffffff" direction="rtl">הזמנה חדשה #482</text>
<text x="888" y="674" text-anchor="end" class="he" font-size="11" fill="#ffffff" fill-opacity="0.5" direction="rtl">לפני 2 דקות</text>
<rect x="712" y="696" width="206" height="50" rx="12" fill="#ffffff" fill-opacity="0.05"/>
<circle cx="902" cy="721" r="4" fill="#B49BFF"/>
<text x="888" y="716" text-anchor="end" class="he" font-size="12.5" font-weight="500" fill="#ffffff" direction="rtl">פגישה נקבעה ל-11:30</text>
<text x="888" y="734" text-anchor="end" class="he" font-size="11" fill="#ffffff" fill-opacity="0.5" direction="rtl">יום שלישי</text>
<rect x="712" y="826" width="206" height="44" rx="14" fill="url(#cta)"/>
<text x="815" y="854" text-anchor="middle" class="he" font-size="15" font-weight="800" fill="#15103a" direction="rtl">לכל העדכונים</text>
</g>
<g>
<circle cx="170" cy="898" r="17" fill="none" stroke="#FF93D8" stroke-width="2.2"/>
<path d="M163 912 l14 0 M165 919 l10 0" stroke="#FF93D8" stroke-width="2.2" stroke-linecap="round"/>
<path d="M165 898 l5 -7 l5 7" fill="none" stroke="#FF93D8" stroke-width="1.8" stroke-linecap="round" stroke-linejoin="round"/>
<line x1="205" y1="898" x2="335" y2="898" stroke="#ffffff" stroke-opacity="0.3" stroke-width="2" stroke-dasharray="2 8" stroke-linecap="round"/>
<text x="370" y="908" text-anchor="middle" class="en" font-size="24" font-weight="700" fill="#8BE9FF">&lt;/&gt;</text>
<line x1="412" y1="898" x2="528" y2="898" stroke="#ffffff" stroke-opacity="0.3" stroke-width="2" stroke-dasharray="2 8" stroke-linecap="round"/>
<g transform="translate(570 898) rotate(45)">
<path d="M0,-30 C10,-14 10,4 7,14 L-7,14 C-10,4 -10,-14 0,-30 Z" fill="#e9ecff"/>
<circle cx="0" cy="-8" r="6" fill="#8BE9FF"/>
<path d="M-7,8 L-17,22 L-7,17 Z" fill="#FF93D8"/>
<path d="M7,8 L17,22 L7,17 Z" fill="#FF93D8"/>
</g>
<line x1="614" y1="898" x2="650" y2="898" stroke="#ffffff" stroke-opacity="0.3" stroke-width="2" stroke-dasharray="2 8" stroke-linecap="round"/>
<path d="M652 890 L664 898 L652 906" fill="none" stroke="#8BE9FF" stroke-width="2.2" stroke-linecap="round" stroke-linejoin="round"/>
<text x="170" y="958" text-anchor="middle" class="he" font-size="15" fill="#ffffff" fill-opacity="0.6" direction="rtl">רעיון</text>
<text x="370" y="958" text-anchor="middle" class="he" font-size="15" fill="#ffffff" fill-opacity="0.6" direction="rtl">בנייה</text>
<text x="570" y="958" text-anchor="middle" class="he" font-size="15" fill="#ffffff" fill-opacity="0.6" direction="rtl">שיגור</text>
</g>
<g>
<text x="270" y="1080" text-anchor="middle" class="en" font-size="40" font-weight="800" fill="#ffffff">120+</text>
<text x="270" y="1112" text-anchor="middle" class="he" font-size="17" fill="#ffffff" fill-opacity="0.6" direction="rtl">פרויקטים ששוגרו</text>
<line x1="405" y1="1050" x2="405" y2="1115" stroke="#ffffff" stroke-opacity="0.15"/>
<text x="540" y="1080" text-anchor="middle" class="en" font-size="40" font-weight="800" fill="#ffffff">87+</text>
<text x="540" y="1112" text-anchor="middle" class="he" font-size="17" fill="#ffffff" fill-opacity="0.6" direction="rtl">לקוחות מרוצים</text>
<line x1="675" y1="1050" x2="675" y2="1115" stroke="#ffffff" stroke-opacity="0.15"/>
<text x="810" y="1080" text-anchor="middle" class="en" font-size="40" font-weight="800" fill="#ffffff">9</text>
<text x="810" y="1112" text-anchor="middle" class="he" font-size="17" fill="#ffffff" fill-opacity="0.6" direction="rtl">שנות ניסיון</text>
</g>
<rect x="375" y="1170" width="330" height="62" rx="31" fill="url(#cta)"/>
<text x="540" y="1210" text-anchor="middle" class="he" font-size="24" font-weight="800" fill="#15103a" direction="rtl">מתחילים בשיחה</text>
<text x="540" y="1300" text-anchor="middle" class="en" font-size="16" font-weight="600" fill="#ffffff" fill-opacity="0.65">050-230-7500 · Itaybenyair99@gmail.com</text>
</svg>
